<?xml version="1.0" encoding="UTF-8" standalone="no"?><!DOCTYPE svg PUBLIC "-//W3C//DTD SVG 1.1//EN" "http://www.w3.org/Graphics/SVG/1.1/DTD/svg11.dtd"><svg width="100%" height="100%" viewBox="0 0 267 259" version="1.1" xmlns="http://www.w3.org/2000/svg" xmlns:xlink="http://www.w3.org/1999/xlink" xml:space="preserve" xmlns:serif="http://www.serif.com/" style="fill-rule:evenodd;clip-rule:evenodd;stroke-linejoin:round;stroke-miterlimit:2;"><path d="M235.375,138c-7.794,0.332 -15.444,2.216 -22.5,5.542c8.087,0.197 16.097,1.63 23.75,4.25c-0.175,-3.29 -0.593,-6.563 -1.25,-9.792Z" style="fill-rule:nonzero;"/><path d="M31.292,138c-0.657,3.229 -1.075,6.501 -1.25,9.792c7.653,-2.62 15.663,-4.053 23.75,-4.25c-7.056,-3.326 -14.706,-5.21 -22.5,-5.542Z" style="fill-rule:nonzero;"/><path d="M205.417,168.708c-0.411,0.04 -0.823,0.061 -1.235,0.061c-6.904,0 -12.586,-5.682 -12.586,-12.586c0,-1.818 0.394,-3.615 1.155,-5.267c-5.529,-1.435 -9.42,-6.465 -9.42,-12.178c0,-4.035 1.941,-7.834 5.212,-10.197c9.12,-6.051 19.19,-10.53 29.791,-13.25c2.754,-0.731 5.551,-1.288 8.375,-1.667c-0.466,-1.05 -0.707,-2.185 -0.708,-3.333c3.833,-13.458 11.792,-46.292 2.25,-60.958c-12.727,-16.922 -41.454,4.783 -54.708,14.124c-0.884,0.662 -2.045,0.835 -3.083,0.459c-2.958,-1.125 -7,-2.542 -11.5,-3.875l0,25.375c0,2.286 -1.881,4.167 -4.167,4.167c-2.286,0 -4.167,-1.881 -4.167,-4.167l0,-27.5c-4.305,-0.999 -8.706,-1.53 -13.125,-1.583l0,44.75c-0.045,2.254 -1.912,4.084 -4.167,4.084c-2.255,0 -4.122,-1.83 -4.167,-4.084l0,-44.75c-4.419,0.052 -8.82,0.583 -13.125,1.583c0.003,5.421 -0.002,21.819 0,27.5c-0.034,2.262 -1.904,4.105 -4.167,4.105c-2.263,0 -4.133,-1.843 -4.167,-4.105l0,-25.375c-4.5,1.333 -8.542,2.75 -11.5,3.875c-1.039,0.375 -2.199,0.203 -3.084,-0.459c-13.292,-9.362 -41.905,-31.038 -54.708,-14.126c-9.542,14.667 -1.583,47.501 2.25,60.959c0.234,1.161 -0.023,2.368 -0.708,3.333c2.824,0.379 5.621,0.935 8.375,1.667c10.601,2.721 20.672,7.199 29.792,13.25c3.325,2.348 5.307,6.174 5.307,10.245c0,5.742 -3.943,10.786 -9.515,12.172c0.776,1.66 1.178,3.47 1.178,5.303c0,6.869 -5.652,12.522 -12.522,12.522c-0.456,0 -0.912,-0.025 -1.365,-0.075c-6.646,-0.538 -13.336,0.04 -19.792,1.709c-2.695,0.708 -5.306,1.699 -7.792,2.958c0.288,0.756 0.622,1.493 1,2.208c25.948,47.393 88.808,47.8 99.542,48c8.917,-0 73.292,-1.625 97.875,-48c0.083,-0.167 0.458,-0.875 1,-2.167c-2.476,-1.29 -5.09,-2.296 -7.792,-3c-6.475,-1.642 -13.173,-2.219 -19.833,-1.708Zm-27.375,-38.667c-6.239,-0.067 -11.335,-5.219 -11.335,-11.458c0,-6.24 5.096,-11.391 11.336,-11.458c6.239,0.067 11.335,5.219 11.335,11.458c0,6.24 -5.096,11.391 -11.336,11.458Zm-58,21.167c2.014,-0.089 3.999,-0.512 5.875,-1.25c-7.073,-7.445 -13.189,-14.184 -7.708,-17.541c0.614,-0.343 1.305,-0.523 2.008,-0.523c1.506,0 2.896,0.825 3.617,2.147c2.557,4.262 5.762,8.099 9.5,11.375c3.738,-3.276 6.943,-7.113 9.5,-11.375c0.747,-1.278 2.12,-2.067 3.6,-2.067c2.287,0 4.17,1.882 4.17,4.17c0,0.675 -0.164,1.341 -0.478,1.939c-2.538,4.388 -5.696,8.387 -9.375,11.875c1.876,0.738 3.861,1.161 5.875,1.25c2.277,0.112 4.07,2.055 4,4.333c-0.078,2.227 -1.939,4.013 -4.167,4c-4.639,-0.187 -9.156,-1.55 -13.125,-3.958c-3.934,2.384 -8.404,3.745 -13,3.958c-0.015,0 -0.031,0 -0.046,0c-2.288,0 -4.17,-1.883 -4.17,-4.17c0,-2.195 1.733,-4.034 3.925,-4.163Zm-42.875,-32.625c0.069,-6.238 5.22,-11.331 11.458,-11.331c6.238,0 11.389,5.094 11.458,11.332c-0.069,6.238 -5.22,11.331 -11.458,11.331c-6.238,0 -11.389,-5.094 -11.458,-11.332Z" style="fill-rule:nonzero;"/><path d="M21.833,130.75c6.555,-1.507 13.368,-1.493 19.917,0.042c9.543,2.209 18.625,6.073 26.833,11.417c0.684,0.456 1.488,0.7 2.31,0.7c2.283,0 4.162,-1.879 4.162,-4.162c0,-1.334 -0.641,-2.59 -1.722,-3.372c-8.718,-5.806 -18.395,-10.024 -28.583,-12.458c-2.781,-0.671 -5.608,-1.13 -8.458,-1.375c-4.758,-0.046 -20.906,-1.797 -19.5,6.166c0.443,1.853 2.114,3.171 4.019,3.171c0.345,0 0.689,-0.043 1.023,-0.129Z" style="fill-rule:nonzero;"/><path d="M62.167,160.417c0.145,0.015 0.291,0.023 0.436,0.023c2.28,0 4.156,-1.876 4.156,-4.156c0,-2.068 -1.544,-3.837 -3.592,-4.117c-8.366,-0.773 -16.802,-0.14 -24.958,1.875c-6.186,1.467 -12.057,4.036 -17.333,7.583c-1.09,0.787 -1.736,2.052 -1.736,3.396c0,2.269 1.843,4.146 4.112,4.188c0.846,0.016 1.676,-0.231 2.375,-0.708c4.104,-2.776 8.657,-4.82 13.458,-6.042c7.526,-1.967 15.329,-2.657 23.083,-2.042Z" style="fill-rule:nonzero;"/><path d="M246.833,122.667c-8.207,-1.896 -16.749,-1.811 -24.917,0.25c-10.188,2.435 -19.865,6.653 -28.583,12.458c-1.118,0.777 -1.786,2.055 -1.786,3.417c0,2.283 1.878,4.161 4.161,4.161c0.849,0 1.678,-0.26 2.375,-0.744c8.209,-5.344 17.291,-9.208 26.833,-11.417c6.548,-1.535 13.362,-1.549 19.917,-0.042c0.302,0.068 0.61,0.103 0.919,0.103c2.285,0 4.164,-1.88 4.164,-4.164c0,-1.878 -1.27,-3.534 -3.083,-4.022Z" style="fill-rule:nonzero;"/><path d="M236.625,156.708c-2.651,-1.095 -5.381,-1.986 -8.167,-2.667c-8.156,-2.015 -16.593,-2.648 -24.958,-1.875c-2.076,0.252 -3.655,2.034 -3.655,4.125c0,2.279 1.876,4.155 4.155,4.155c0.167,0 0.334,-0.01 0.5,-0.03c7.754,-0.615 15.557,0.075 23.083,2.042c4.801,1.222 9.355,3.266 13.458,6.042c0.699,0.477 1.529,0.725 2.375,0.708c2.268,-0.042 4.111,-1.919 4.111,-4.188c0,-1.344 -0.647,-2.609 -1.736,-3.396c-2.867,-1.969 -5.941,-3.617 -9.166,-4.917Z" style="fill-rule:nonzero;"/></svg>