<svg version="1.2" xmlns="http://www.w3.org/2000/svg" viewBox="0 0 267 259" width="267" height="259">
	<style>
		.s0 { fill: #ffffff } 
	</style>
	<path class="s0" d="m235.38 138c-7.8 0.33-15.45 2.22-22.5 5.54 8.08 0.2 16.09 1.63 23.75 4.25q-0.27-4.94-1.25-9.79z"/>
	<path class="s0" d="m31.29 138q-0.98 4.85-1.25 9.79c7.66-2.62 15.66-4.05 23.75-4.25-7.05-3.32-14.7-5.21-22.5-5.54z"/>
	<path class="s0" d="m205.42 168.71q-0.62 0.06-1.24 0.06c-6.9 0-12.58-5.68-12.58-12.59 0-1.82 0.39-3.61 1.15-5.26-5.53-1.44-9.42-6.47-9.42-12.18 0-4.04 1.94-7.84 5.21-10.2 9.12-6.05 19.19-10.53 29.79-13.25q4.14-1.1 8.38-1.67c-0.47-1.05-0.71-2.18-0.71-3.33 3.83-13.46 11.79-46.29 2.25-60.96-12.73-16.92-41.45 4.79-54.71 14.13-0.88 0.66-2.04 0.83-3.08 0.46-2.96-1.13-7-2.55-11.5-3.88v25.38c0 2.28-1.88 4.16-4.17 4.16-2.28 0-4.16-1.88-4.16-4.16v-27.5c-4.31-1-8.71-1.53-13.13-1.59v44.75c-0.04 2.26-1.91 4.09-4.17 4.09-2.25 0-4.12-1.83-4.16-4.09v-44.75c-4.42 0.05-8.82 0.59-13.13 1.59 0 5.42 0 21.81 0 27.5-0.03 2.26-1.9 4.1-4.17 4.1-2.26 0-4.13-1.84-4.16-4.1v-25.38c-4.5 1.33-8.54 2.75-11.5 3.88-1.04 0.37-2.2 0.2-3.09-0.46-13.29-9.37-41.9-31.04-54.7-14.13-9.55 14.67-1.59 47.5 2.25 60.96 0.23 1.16-0.03 2.37-0.71 3.33q4.24 0.57 8.37 1.67c10.6 2.72 20.67 7.2 29.79 13.25 3.33 2.35 5.31 6.17 5.31 10.24 0 5.75-3.94 10.79-9.51 12.18 0.77 1.66 1.17 3.47 1.17 5.3 0 6.87-5.65 12.52-12.52 12.52q-0.68 0-1.36-0.07c-6.65-0.54-13.34 0.04-19.79 1.71q-4.06 1.06-7.8 2.95 0.44 1.14 1 2.21c25.95 47.39 88.81 47.8 99.55 48 8.91 0 73.29-1.62 97.87-48 0.08-0.17 0.46-0.87 1-2.17q-3.73-1.93-7.79-3c-6.48-1.64-13.17-2.21-19.83-1.7zm-27.38-38.67c-6.24-0.07-11.33-5.22-11.33-11.46 0-6.24 5.09-11.39 11.33-11.46 6.24 0.07 11.34 5.22 11.34 11.46 0 6.24-5.1 11.39-11.34 11.46zm-58 21.17c2.02-0.09 4-0.51 5.88-1.25-7.08-7.45-13.19-14.19-7.71-17.54 0.61-0.35 1.3-0.53 2.01-0.53 1.5 0 2.89 0.83 3.61 2.15 2.56 4.26 5.77 8.1 9.5 11.38 3.74-3.28 6.95-7.12 9.5-11.38 0.75-1.28 2.12-2.07 3.6-2.07 2.29 0 4.17 1.89 4.17 4.17q0 1.03-0.47 1.94c-2.54 4.39-5.7 8.39-9.38 11.88 1.88 0.74 3.86 1.16 5.88 1.25 2.27 0.11 4.07 2.05 4 4.33-0.08 2.23-1.94 4.01-4.17 4-4.64-0.19-9.16-1.55-13.13-3.96-3.93 2.39-8.4 3.75-13 3.96q-0.02 0-0.04 0c-2.29 0-4.17-1.88-4.17-4.17 0-2.19 1.73-4.03 3.92-4.16zm-42.87-32.63c0.07-6.24 5.22-11.33 11.46-11.33 6.23 0 11.38 5.1 11.45 11.33-0.07 6.24-5.22 11.33-11.45 11.33-6.24 0-11.39-5.09-11.46-11.33z"/>
	<path class="s0" d="m21.83 130.75c6.56-1.51 13.37-1.49 19.92 0.04 9.54 2.21 18.63 6.08 26.83 11.42 0.69 0.45 1.49 0.7 2.31 0.7 2.29 0 4.17-1.88 4.17-4.16 0-1.34-0.65-2.59-1.73-3.37-8.71-5.81-18.39-10.03-28.58-12.46q-4.18-1.01-8.46-1.38c-4.76-0.04-20.9-1.79-19.5 6.17 0.45 1.85 2.12 3.17 4.02 3.17q0.52 0 1.02-0.13z"/>
	<path class="s0" d="m62.17 160.42q0.21 0.02 0.43 0.02c2.28 0 4.16-1.88 4.16-4.16 0-2.06-1.54-3.83-3.59-4.11-8.37-0.78-16.8-0.14-24.96 1.87-6.19 1.47-12.06 4.04-17.33 7.59-1.09 0.78-1.74 2.05-1.74 3.39 0 2.27 1.84 4.15 4.11 4.19 0.85 0.01 1.68-0.23 2.38-0.71 4.1-2.78 8.65-4.82 13.45-6.04 7.53-1.97 15.33-2.66 23.09-2.04z"/>
	<path class="s0" d="m246.83 122.67c-8.2-1.9-16.75-1.81-24.91 0.25-10.19 2.43-19.87 6.65-28.59 12.45-1.12 0.78-1.78 2.06-1.78 3.42 0 2.28 1.87 4.16 4.16 4.16 0.85 0 1.68-0.26 2.37-0.74 8.21-5.34 17.29-9.21 26.84-11.42 6.54-1.53 13.36-1.55 19.91-0.04q0.46 0.1 0.92 0.1c2.29 0 4.17-1.88 4.17-4.16 0-1.88-1.27-3.53-3.09-4.02z"/>
	<path class="s0" d="m236.63 156.71q-3.99-1.65-8.17-2.67c-8.16-2.01-16.59-2.65-24.96-1.87-2.08 0.25-3.65 2.03-3.65 4.12 0 2.28 1.87 4.16 4.15 4.16q0.25 0 0.5-0.03c7.75-0.62 15.56 0.07 23.08 2.04 4.8 1.22 9.36 3.26 13.46 6.04 0.7 0.48 1.53 0.72 2.38 0.71 2.26-0.04 4.11-1.92 4.11-4.19 0-1.34-0.65-2.61-1.74-3.4q-4.31-2.96-9.16-4.91z"/>
</svg>